<?xml version="1.0" standalone="no"?>
<!DOCTYPE svg PUBLIC "-//W3C//DTD SVG 20010904//EN"
 "http://www.w3.org/TR/2001/REC-SVG-20010904/DTD/svg10.dtd">
<svg version="1.0" xmlns="http://www.w3.org/2000/svg"
 width="416.000000pt" height="416.000000pt" viewBox="0 0 416.000000 416.000000"
 preserveAspectRatio="xMidYMid meet">
<metadata>
Created by potrace 1.16, written by Peter Selinger 2001-2019
</metadata>
<g transform="translate(0.000000,416.000000) scale(0.100000,-0.100000)"
fill="#000000" stroke="none">
<path d="M2058 3269 c-27 -77 -114 -240 -181 -336 -39 -57 -95 -138 -124 -179
-68 -99 -93 -174 -93 -280 0 -186 87 -328 248 -402 74 -34 211 -43 295 -18
179 52 297 220 297 420 -1 110 -28 187 -110 304 -153 219 -190 278 -246 397
-32 68 -63 125 -67 125 -4 0 -13 -14 -19 -31z m-261 -861 c6 -7 16 -31 23 -52
16 -48 81 -121 133 -147 21 -11 61 -23 88 -26 47 -6 79 -23 79 -43 0 -5 -8
-16 -17 -25 -28 -29 -144 -3 -219 48 -86 57 -168 193 -144 238 12 22 43 25 57
7z"/>
<path d="M1132 2748 c-6 -18 -18 -59 -26 -90 -9 -31 -38 -107 -65 -170 -71
-167 -75 -189 -57 -343 25 -216 57 -339 112 -433 42 -71 178 -206 268 -266 44
-29 130 -82 190 -117 143 -83 221 -160 276 -272 22 -45 46 -106 52 -134 7 -29
16 -53 19 -53 9 0 52 67 87 136 157 312 23 606 -375 821 -48 27 -104 64 -124
84 -20 20 -76 102 -123 183 -90 151 -139 211 -181 222 -73 18 -78 -23 -20
-198 50 -150 77 -206 127 -264 17 -19 23 -32 15 -28 -8 3 -37 33 -63 66 -37
48 -58 91 -96 197 -62 174 -66 198 -38 234 12 15 27 27 35 27 17 0 75 241 75
311 0 71 -29 119 -70 119 -5 0 -13 -15 -18 -32z"/>
<path d="M2982 2773 c-23 -9 -42 -61 -42 -113 0 -28 14 -109 31 -179 24 -101
34 -130 49 -134 10 -2 26 -17 36 -32 17 -26 17 -31 2 -84 -42 -154 -95 -279
-142 -339 -64 -82 -87 -88 -26 -7 41 55 57 90 101 225 45 136 51 163 41 185
-14 30 -43 32 -86 5 -39 -24 -72 -69 -165 -228 -87 -148 -120 -183 -231 -242
-214 -114 -368 -271 -421 -428 -33 -97 -31 -212 6 -312 30 -83 114 -226 124
-213 4 4 15 35 25 68 55 185 138 275 381 420 186 110 311 216 384 326 65 97
106 249 131 487 13 120 7 147 -70 332 -27 63 -53 135 -60 160 -28 110 -32 117
-68 103z"/>
<path d="M1255 2678 c-3 -13 -12 -54 -20 -93 -8 -38 -25 -107 -39 -153 l-24
-83 26 -10 c15 -6 39 -22 54 -36 32 -31 28 -39 62 118 32 145 34 216 5 253
-25 32 -57 34 -64 4z"/>
<path d="M2841 2674 c-29 -37 -27 -108 5 -253 34 -157 30 -149 62 -118 15 14
39 30 53 36 l26 10 -28 98 c-16 54 -34 125 -39 158 -6 33 -13 68 -16 78 -8 25
-40 21 -63 -9z"/>
<path d="M1376 2583 c-3 -10 -8 -40 -12 -68 -4 -27 -20 -96 -36 -153 l-28
-103 42 -69 c32 -52 44 -65 49 -52 21 58 70 346 65 376 -12 63 -67 111 -80 69z"/>
<path d="M2731 2574 c-35 -45 -35 -83 -1 -257 18 -89 35 -170 39 -179 5 -13
17 0 49 52 l42 69 -28 103 c-16 57 -32 126 -36 153 -13 95 -27 107 -65 59z"/>
<path d="M1470 2374 c-6 -14 -10 -35 -10 -47 0 -12 -13 -71 -29 -130 l-30
-109 42 -70 42 -70 6 64 c4 34 17 96 29 136 27 90 25 198 -4 231 -25 27 -34
26 -46 -5z"/>
<path d="M2645 2380 c-30 -34 -32 -138 -5 -236 13 -43 26 -105 29 -137 l6 -57
42 69 42 70 -20 73 c-12 40 -28 109 -37 152 -10 44 -22 81 -28 83 -6 2 -19 -6
-29 -17z"/>
</g>
</svg>
