<?xml version="1.0" standalone="no"?>
<!DOCTYPE svg PUBLIC "-//W3C//DTD SVG 20010904//EN"
 "http://www.w3.org/TR/2001/REC-SVG-20010904/DTD/svg10.dtd">
<svg version="1.0" xmlns="http://www.w3.org/2000/svg"
 width="400.000000pt" height="400.000000pt" viewBox="0 0 400.000000 400.000000"
 preserveAspectRatio="xMidYMid meet">

<g transform="translate(0.000000,400.000000) scale(0.100000,-0.100000)"
fill="#000000" stroke="none">
<path d="M1825 3646 c-297 -69 -537 -299 -617 -593 -30 -111 -30 -306 1 -417
61 -228 218 -420 426 -522 128 -63 224 -85 365 -85 141 0 237 22 365 85 208
102 365 294 426 522 31 111 31 306 1 417 -74 270 -275 480 -547 573 -69 23
-99 28 -220 30 -94 3 -160 -1 -200 -10z"/>
<path d="M1656 1805 c-325 -53 -601 -192 -830 -421 -254 -253 -410 -595 -433
-950 l-6 -94 1613 0 1613 0 -6 93 c-45 666 -521 1212 -1186 1358 -83 19 -135
22 -386 25 -217 2 -312 -1 -379 -11z"/>
</g>
</svg>
